<svg viewBox="0 0 317.13 124.65"><path d="M913.87,477.87a.73.73,0,0,0-.65-.41H878.36a.3.3,0,0,0-.26.43l62.49,123.82a.71.71,0,0,0,.65.4h34.85a.29.29,0,0,0,.26-.42Z" transform="translate(-801.31 -477.46)"></path> <path d="M848,477.88a.74.74,0,0,0-.68-.42h-45.3a.74.74,0,0,0-.66,1.07l2.15,4.25a1.06,1.06,0,0,0,1,.6h6.91a5.63,5.63,0,0,1,5.15,3l58.18,115.3a.75.75,0,0,0,.66.4H910a.42.42,0,0,0,.38-.61Z" transform="translate(-801.31 -477.46)"></path> <path d="M979.46,477.87a.72.72,0,0,0-.65-.41H944a.29.29,0,0,0-.26.43l62.48,123.82a.73.73,0,0,0,.65.4h34.86a.29.29,0,0,0,.26-.42Z" transform="translate(-801.31 -477.46)"></path> <path d="M1118.36,601l-2.14-4.25a1.09,1.09,0,0,0-1-.59H1109a6.57,6.57,0,0,1-6-3.54l-25.49-50.45a.92.92,0,0,1,.58-1.3,46.55,46.55,0,0,0,9.12-3.72,31.62,31.62,0,0,0-14.49-59.73h-62.43a.74.74,0,0,0-.66,1.07l2.14,4.25a1.09,1.09,0,0,0,1,.6h30.73a24.91,24.91,0,0,1,23.9,17.88l0,.05c.08.28.16.55.23.84a23.59,23.59,0,0,1,.81,6.65,25,25,0,0,1-30.76,23.78.42.42,0,0,0-.47.59l34.32,68a1.69,1.69,0,0,0,1.51.93h44.68A.74.74,0,0,0,1118.36,601Z" transform="translate(-801.31 -477.46)"></path></svg>